# Blender 3.4.1
# www.blender.org
mtllib mesa.mtl
o Cube
v -1.000000 1.300000 2.000000
v -1.000000 1.500000 2.000000
v -1.000000 1.300000 -2.000000
v -1.000000 1.500000 -2.000000
v 1.000000 1.300000 2.000000
v 1.000000 1.500000 2.000000
v 1.000000 1.300000 -2.000000
v 1.000000 1.500000 -2.000000
v -1.000000 1.300000 1.800000
v -1.000000 1.500000 1.800000
v 1.000000 1.300000 1.800000
v 1.000000 1.500000 1.800000
v -1.000000 1.500000 -1.810000
v 1.000000 1.300000 -1.810000
v -1.000000 1.300000 -1.810000
v 1.000000 1.500000 -1.810000
v 0.800000 1.300000 -2.000000
v 0.800000 1.500000 -2.000000
v 0.800000 1.300000 2.000000
v 0.800000 1.500000 2.000000
v 0.800000 1.500000 1.800000
v 0.800000 1.300000 1.800000
v 0.800000 1.300000 -1.810000
v 0.800000 1.500000 -1.810000
v -0.820000 1.300000 -2.000000
v -0.820000 1.500000 2.000000
v -0.820000 1.300000 1.800000
v -0.820000 1.300000 -1.810000
v -0.820000 1.500000 -2.000000
v -0.820000 1.300000 2.000000
v -0.820000 1.500000 1.800000
v -0.820000 1.500000 -1.810000
v 0.800000 0.300000 2.000000
v 1.000000 0.300000 2.000000
v 1.000000 0.300000 1.800000
v 0.800000 0.300000 1.800000
v 0.800000 0.000000 2.000000
v 1.000000 0.000000 2.000000
v 1.000000 0.000000 1.800000
v 0.800000 0.000000 1.800000
v -1.000000 0.000000 1.800000
v -1.000000 0.000000 2.000000
v -0.820000 0.000000 1.800000
v -0.820000 0.000000 2.000000
v -0.820000 0.000000 -2.000000
v -1.000000 0.000000 -2.000000
v -1.000000 0.000000 -1.810000
v -0.820000 0.000000 -1.810000
v 1.000000 0.000000 -1.810000
v 1.000000 0.000000 -2.000000
v 0.800000 0.000000 -2.000000
v 0.800000 0.000000 -1.810000
vn -1.0000 -0.0000 -0.0000
vn -0.0000 -0.0000 -1.0000
vn 1.0000 -0.0000 -0.0000
vn -0.0000 -0.0000 1.0000
vn -0.0000 1.0000 -0.0000
vn -0.0000 -1.0000 -0.0000
vt 0.814286 0.571429
vt 0.028571 0.571428
vt 0.000000 0.571428
vt 0.571429 0.571429
vt 0.785714 0.571429
vt 0.242857 0.857143
vt 0.814286 0.000000
vt 0.785714 0.000000
vt 0.571429 0.000000
vt 0.214286 0.857143
vt 0.028571 0.857143
vt 0.600000 0.000000
vt 0.571429 0.000000
vt 0.285714 0.571429
vt 0.000000 0.857143
vt 0.600000 0.571429
vt 0.242857 0.571429
vt 0.285714 0.000000
vt 0.214286 0.571429
vt 0.571429 0.571429
vt 0.648571 0.757143
vt 0.000000 0.542857
vt 0.814286 0.542857
vt 0.571429 0.542857
vt 0.785714 0.542857
vt 0.285714 0.542857
vt 0.600000 0.028571
vt 0.457143 0.757143
vt 0.571429 0.028571
vt 0.285714 0.542857
vt 0.571429 0.027143
vt 0.785714 0.027143
vt 0.457143 0.757143
vt 0.285714 0.027143
vt 0.600000 0.544286
vt 0.000000 0.027143
vt 0.814286 0.027143
vt 0.597143 0.757143
vt 0.571429 0.544286
vt 0.285714 0.027143
vt 0.257143 0.000000
vt 0.242857 0.600000
vt 0.570000 0.757143
vt 0.314286 0.000000
vt 0.214286 0.600000
vt 0.514286 0.757143
vt 0.257143 0.571429
vt 0.028571 0.828571
vt 0.314286 0.571429
vt 0.000000 0.828571
vt 0.314286 0.542857
vt 0.257143 0.542857
vt 0.485714 0.757143
vt 0.597143 0.757143
vt 0.257143 0.027143
vt 0.428571 0.757143
vt 0.314286 0.027143
vt 0.025714 0.000000
vt 0.570000 0.757143
vt 0.242857 0.831429
vt 0.545714 0.571429
vt 0.000000 0.597143
vt 0.542857 0.757143
vt 0.622857 0.757143
vt 0.025714 0.542857
vt 0.622857 0.757143
vt 0.025714 0.027143
vt 0.542857 0.757143
vt 0.214286 0.831429
vt 0.545714 0.000000
vt 0.025714 0.571429
vt 0.028571 0.597143
vt 0.514286 0.757143
vt 0.545714 0.542857
vt 0.545714 0.027143
vt 0.514286 0.614286
vt 0.171429 0.828571
vt 0.171429 0.857143
vt 0.742857 0.000000
vt 0.742857 0.028571
vt 0.457143 0.614286
vt 0.485714 0.614286
vt 0.514286 0.571428
vt 0.648571 0.600000
vt 0.214286 0.828571
vt 0.677143 0.600000
vt 0.785714 0.000000
vt 0.214286 0.857143
vt 0.677143 0.571429
vt 0.785714 0.028571
vt 0.457143 0.571429
vt 0.648571 0.571429
vt 0.485714 0.571429
vt 0.648571 0.628571
vt 0.648571 0.571429
vt 1.000000 0.542857
vt 0.648571 0.657143
vt 1.000000 0.571429
vt 0.214286 0.571428
vt 0.622857 0.571429
vt 0.674286 0.628571
vt 0.542857 0.571429
vt 0.674286 0.657143
vt 0.514286 0.571429
vt 0.214286 0.597143
vt 0.428571 0.831429
vt 0.674286 0.657143
vt 0.570000 0.571428
vt 0.648571 0.657143
vt 0.428571 0.857143
vt 1.000000 0.000000
vt 0.648571 0.684286
vt 1.000000 0.027143
vt 0.597143 0.571429
vt 0.674286 0.684286
vt 0.542857 0.571428
vt 0.622857 0.571429
vt 0.648571 0.628571
vt 0.785714 0.544286
vt 0.457143 0.571428
vt 0.428571 0.571429
vt 0.675714 0.628571
vt 0.785714 0.571429
vt 0.675714 0.600000
vt 0.428571 0.600000
vt 0.570000 0.571429
vt 0.648571 0.600000
vt 0.597143 0.571429
vt 0.428571 0.571428
s 0
usemtl Material.001
f 13/32/1 3/7/1 15/37/1
f 18/45/2 7/17/2 17/42/2
f 12/29/3 5/12/3 11/27/3
f 26/62/4 1/2/4 30/72/4
f 19/48/4 34/78/4 5/11/4
f 10/24/5 26/61/5 31/74/5
f 13/31/5 31/74/5 32/75/5
f 14/34/6 22/52/6 23/55/6
f 16/39/3 11/27/3 14/35/3
f 2/5/1 9/23/1 1/1/1
f 8/20/3 14/35/3 7/16/3
f 7/17/2 51/125/2 17/42/2
f 4/9/5 32/75/5 29/70/5
f 10/25/1 15/37/1 9/23/1
f 18/44/5 16/40/5 8/18/5
f 17/41/6 28/67/6 25/58/6
f 23/55/6 27/65/6 28/67/6
f 24/57/5 12/30/5 16/40/5
f 21/51/5 6/14/5 12/30/5
f 22/52/6 30/71/6 27/65/6
f 6/15/4 19/48/4 5/11/4
f 29/69/2 17/42/2 25/60/2
f 4/10/2 25/60/2 3/6/2
f 27/64/2 41/95/2 9/21/2
f 28/67/6 9/22/6 15/36/6
f 25/60/2 46/110/2 3/6/2
f 29/70/5 24/57/5 18/44/5
f 32/75/5 21/51/5 24/57/5
f 31/74/5 20/49/5 21/51/5
f 20/50/4 30/72/4 19/48/4
f 36/82/1 37/83/1 33/76/1
f 22/53/1 33/76/1 19/46/1
f 11/28/2 36/82/2 22/53/2
f 5/12/3 35/80/3 11/27/3
f 39/89/6 37/84/6 40/92/6
f 34/79/3 39/90/3 35/80/3
f 35/81/2 40/93/2 36/82/2
f 33/77/4 38/88/4 34/78/4
f 43/101/6 42/97/6 41/94/6
f 9/23/1 42/98/1 1/1/1
f 30/73/3 43/102/3 27/63/3
f 1/2/4 44/105/4 30/72/4
f 45/107/6 47/112/6 46/109/6
f 3/7/1 47/113/1 15/37/1
f 28/68/3 45/108/3 25/59/3
f 15/38/4 48/117/4 28/66/4
f 50/122/6 52/127/6 51/124/6
f 17/43/1 52/128/1 23/54/1
f 14/35/3 50/123/3 7/16/3
f 23/56/4 49/120/4 14/33/4
f 13/32/1 4/8/1 3/7/1
f 18/45/2 8/19/2 7/17/2
f 12/29/3 6/13/3 5/12/3
f 26/62/4 2/3/4 1/2/4
f 19/48/4 33/77/4 34/78/4
f 10/24/5 2/4/5 26/61/5
f 13/31/5 10/24/5 31/74/5
f 14/34/6 11/26/6 22/52/6
f 16/39/3 12/29/3 11/27/3
f 2/5/1 10/25/1 9/23/1
f 8/20/3 16/39/3 14/35/3
f 7/17/2 50/121/2 51/125/2
f 4/9/5 13/31/5 32/75/5
f 10/25/1 13/32/1 15/37/1
f 18/44/5 24/57/5 16/40/5
f 17/41/6 23/55/6 28/67/6
f 23/55/6 22/52/6 27/65/6
f 24/57/5 21/51/5 12/30/5
f 21/51/5 20/49/5 6/14/5
f 22/52/6 19/47/6 30/71/6
f 6/15/4 20/50/4 19/48/4
f 29/69/2 18/45/2 17/42/2
f 4/10/2 29/69/2 25/60/2
f 27/64/2 43/100/2 41/95/2
f 28/67/6 27/65/6 9/22/6
f 25/60/2 45/106/2 46/110/2
f 29/70/5 32/75/5 24/57/5
f 32/75/5 31/74/5 21/51/5
f 31/74/5 26/61/5 20/49/5
f 20/50/4 26/62/4 30/72/4
f 36/82/1 40/93/1 37/83/1
f 22/53/1 36/82/1 33/76/1
f 11/28/2 35/81/2 36/82/2
f 5/12/3 34/79/3 35/80/3
f 39/89/6 38/86/6 37/84/6
f 34/79/3 38/87/3 39/90/3
f 35/81/2 39/91/2 40/93/2
f 33/77/4 37/85/4 38/88/4
f 43/101/6 44/103/6 42/97/6
f 9/23/1 41/96/1 42/98/1
f 30/73/3 44/104/3 43/102/3
f 1/2/4 42/99/4 44/105/4
f 45/107/6 48/115/6 47/112/6
f 3/7/1 46/111/1 47/113/1
f 28/68/3 48/116/3 45/108/3
f 15/38/4 47/114/4 48/117/4
f 50/122/6 49/118/6 52/127/6
f 17/43/1 51/126/1 52/128/1
f 14/35/3 49/119/3 50/123/3
f 23/56/4 52/129/4 49/120/4
