# Blender 3.4.1
# www.blender.org
mtllib sala.mtl
o Cube
v 6.696933 5.995849 -10.247584
v 6.696933 -0.015763 -10.247584
v 6.696933 5.995849 10.146282
v 6.696933 -0.015763 10.146282
v -6.696933 5.995849 -10.247584
v -6.696933 -0.015763 -10.247584
v -6.696933 5.995849 10.146282
v -6.696933 -0.015763 10.146282
v 0.000000 -0.015763 -10.247584
v 0.000000 5.995849 10.146282
v 0.000000 -0.015763 10.146282
v 0.000000 5.995849 -10.247584
vn -0.0000 1.0000 -0.0000
vn -0.0000 -0.0000 1.0000
vn -1.0000 -0.0000 -0.0000
vn -0.0000 -0.0000 -1.0000
vt 0.150557 0.997422
vt 0.998948 0.927949
vt 0.999166 0.141746
vt 0.126312 0.855267
vt 0.949043 0.997352
vt 0.127239 0.677218
vt 0.154448 0.872387
vt 0.950583 0.869017
vt 0.951796 0.872481
vt 0.952188 0.169231
vt 0.952255 0.148706
vt 0.952934 0.875035
vt 0.146455 0.864092
vt 0.146628 0.866002
vt 0.146933 0.142973
vt 0.145299 0.146500
vt 0.975677 0.155488
vt 0.005627 0.998676
vt 0.000495 0.960660
vt 0.950989 0.936193
vt 0.003786 0.101686
vt 0.014737 0.712044
vt 0.975372 0.900215
vt 0.152503 0.934904
s 0
usemtl Material
f 5/7/1 10/20/1 12/24/1
f 10/18/2 8/16/2 11/21/2
f 7/14/3 6/11/3 8/15/3
f 12/23/4 2/3/4 9/17/4
f 5/9/4 9/17/4 6/10/4
f 3/4/2 11/22/2 4/6/2
f 12/24/1 3/5/1 1/1/1
f 5/7/1 7/12/1 10/20/1
f 10/18/2 7/13/2 8/16/2
f 7/14/3 5/8/3 6/11/3
f 12/23/4 1/2/4 2/3/4
f 5/9/4 12/23/4 9/17/4
f 3/4/2 10/19/2 11/22/2
f 12/24/1 10/20/1 3/5/1
